<svg xmlns="http://www.w3.org/2000/svg" xmlns:xlink="http://www.w3.org/1999/xlink" version="1.1" width="836.2578179373763" height="472.8664389119999"><desc>materialdesignicons%20F07D4%20Ellmer%0Amaterialdesignicons%20F167A%20OpenAI%0Aparticipant%20openweather.org%0A%0AEllmer-%3EOpenAI%3A%20%7B%5Cn%20%20role%3A%20%22user%22%2C%5Cn%20%20content%3A%20%22What's%20the%20weather%20right%20now%20at%20Fenway%20Park%3F%22%2C%5Cn%7D%0AOpenAI-%3Eopenweather.org%3A%20GET%20%2Fweather%2Fcurrent%2Fus%2F02215.json%0Aopenweather.org-%3EOpenAI%3A%20%7B%22temp%22%3A%2065%2C%20%22conditions%22%3A%20%22sunny%22%7D%0AOpenAI-%3EEllmer%3A%20%7B%5Cn%20%20role%3A%20%22assistant%22%2C%5Cn%20%20content%3A%20%22It's%2065%20degrees%20and%20sunny%E2%80%94a%20beautiful%20day!%22%5Cn%7D</desc><defs/><g><g/><g/><g/><g/><g/><g/><g/><g/><g/><g/><g/><g/><g/><g/><g/><g/><g/><g/><g/><g/><g/><g/><g/><g/><g/><g/><g/><g/><g/><g/><g/><g/><g/><g/><g/><g/><g/><g/><g/><g/><g/><g/><g/><g/><g/><g/><g/><g/><g/><g/><g/><g/><g/><g/><g/><g/><g/><g/><g/><g/><g/><g/><g/><g/><g/><g/><g/><g/><g/><g/><g/><g/><g/><g/><g/><g/><g/><g/><g><rect fill="white" stroke="none" x="0" y="0" width="836" height="472"/></g><g/><g><path fill="none" stroke="black" paint-order="fill stroke markers" d=" M 42.923888055999996 99.92118203199999 L 42.923888055999996 472.8664389119999" stroke-miterlimit="10" stroke-width="1.4659797833333332" stroke-dasharray="13.532121076923076,5.863919133333333"/><path fill="none" stroke="black" paint-order="fill stroke markers" d=" M 471.35266665977605 99.92118203199999 L 471.35266665977605 472.8664389119999" stroke-miterlimit="10" stroke-width="1.4659797833333332" stroke-dasharray="13.532121076923076,5.863919133333333"/><path fill="none" stroke="black" paint-order="fill stroke markers" d=" M 753.7614409910911 99.92118203199999 L 753.7614409910911 472.8664389119999" stroke-miterlimit="10" stroke-width="1.4659797833333332" stroke-dasharray="13.532121076923076,5.863919133333333"/></g><g><svg xmlns="http://www.w3.org/2000/svg" viewBox="0 0 24 24" id="mdi-language-r" width="68.256018712" height="68.256018712" x="8.795878699999996" y="8.795878699999989"><path d="M12,4.29C6.5,4.29 2,7.29 2,11C2,14.28 5.56,17 10.24,17.58V19.71H13.65V17.59C14.5,17.5 15.29,17.34 16.04,17.11L17.42,19.71H21.28L18.96,15.8C20.83,14.58 22,12.87 22,11C22,7.29 17.5,4.29 12,4.29V4.29M13.53,6.91C17.73,6.91 20.83,8.31 20.83,11.5C20.83,13.21 19.91,14.41 18.41,15.15C18.32,15.1 18.24,15.05 18.19,15C17.83,14.84 17.23,14.66 17.23,14.66C17.23,14.66 20.21,14.44 20.21,11.47C20.21,8.5 17.09,8.45 17.09,8.45H10.24V15.61C7.69,14.87 5.93,13.3 5.93,11.5C5.93,8.96 9.33,6.91 13.53,6.91M13.68,10.89H15.75C15.75,10.89 16.7,10.84 16.7,11.83C16.7,12.8 15.75,12.8 15.75,12.8H13.68V10.89M13.65,15.3H14.57C14.75,15.3 14.84,15.35 15,15.5C15.13,15.6 15.27,15.79 15.39,15.96C14.84,16.03 14.26,16.06 13.65,16.06V15.3Z"/></svg><g><g/><text fill="black" stroke="none" font-family="sans-serif" font-size="11pt" font-style="normal" font-weight="normal" text-decoration="normal" x="22.154394952972652" y="94.643654812" text-anchor="start" dominant-baseline="alphabetic" xml:space="preserve">Ellmer</text></g><svg xmlns="http://www.w3.org/2000/svg" viewBox="0 0 24 24" id="mdi-robot-outline" width="68.256018712" height="68.256018712" x="437.22465730377604" y="8.795878699999989"><path d="M17.5 15.5C17.5 16.61 16.61 17.5 15.5 17.5S13.5 16.61 13.5 15.5 14.4 13.5 15.5 13.5 17.5 14.4 17.5 15.5M8.5 13.5C7.4 13.5 6.5 14.4 6.5 15.5S7.4 17.5 8.5 17.5 10.5 16.61 10.5 15.5 9.61 13.5 8.5 13.5M23 15V18C23 18.55 22.55 19 22 19H21V20C21 21.11 20.11 22 19 22H5C3.9 22 3 21.11 3 20V19H2C1.45 19 1 18.55 1 18V15C1 14.45 1.45 14 2 14H3C3 10.13 6.13 7 10 7H11V5.73C10.4 5.39 10 4.74 10 4C10 2.9 10.9 2 12 2S14 2.9 14 4C14 4.74 13.6 5.39 13 5.73V7H14C17.87 7 21 10.13 21 14H22C22.55 14 23 14.45 23 15M21 16H19V14C19 11.24 16.76 9 14 9H10C7.24 9 5 11.24 5 14V16H3V17H5V20H19V17H21V16Z"/></svg><g><g/><text fill="black" stroke="none" font-family="sans-serif" font-size="11pt" font-style="normal" font-weight="normal" text-decoration="normal" x="446.49583224815495" y="94.643654812" text-anchor="start" dominant-baseline="alphabetic" xml:space="preserve">OpenAI</text></g><path fill="none" stroke="none"/><g><path fill="white" stroke="black" paint-order="fill stroke markers" d=" M 680.060942744806 52.423437052 L 827.4619392373763 52.423437052 L 827.4619392373763 99.92118203199999 L 680.060942744806 99.92118203199999 L 680.060942744806 52.423437052 Z" stroke-miterlimit="10" stroke-width="2.814681184" stroke-dasharray=""/></g><g><g/><text fill="black" stroke="none" font-family="sans-serif" font-size="11pt" font-style="normal" font-weight="normal" text-decoration="normal" x="699.147999523806" y="82.32942463199998" text-anchor="start" dominant-baseline="alphabetic" xml:space="preserve">openweather.org</text></g></g><g><g><rect fill="white" stroke="none" x="63.740800979333315" y="135.104696832" width="10.173736936796875" height="22.86928462"/><rect fill="white" stroke="none" x="63.740800979333315" y="152.696454232" width="89.01406896804687" height="22.86928462"/><rect fill="white" stroke="none" x="63.740800979333315" y="170.288211632" width="386.7949222395313" height="22.86928462"/><rect fill="white" stroke="none" x="63.740800979333315" y="187.87996903200002" width="10.173736936796875" height="22.86928462"/><text fill="black" stroke="none" font-family="sans-serif" font-size="11pt" font-style="normal" font-weight="normal" text-decoration="normal" x="66.37956458933331" y="150.93727849200002" text-anchor="start" dominant-baseline="alphabetic" xml:space="preserve">{</text><text fill="black" stroke="none" font-family="sans-serif" font-size="11pt" font-style="normal" font-weight="normal" text-decoration="normal" x="66.37956458933331" y="168.52903589200002" text-anchor="start" dominant-baseline="alphabetic" xml:space="preserve">  role: "user",</text><text fill="black" stroke="none" font-family="sans-serif" font-size="11pt" font-style="normal" font-weight="normal" text-decoration="normal" x="66.37956458933331" y="186.12079329200003" text-anchor="start" dominant-baseline="alphabetic" xml:space="preserve">  content: "What's the weather right now at Fenway Park?",</text><text fill="black" stroke="none" font-family="sans-serif" font-size="11pt" font-style="normal" font-weight="normal" text-decoration="normal" x="66.37956458933331" y="203.71255069200004" text-anchor="start" dominant-baseline="alphabetic" xml:space="preserve">}</text></g><g><path fill="none" stroke="black" paint-order="fill stroke markers" d=" M 42.923888055999996 210.749253652 L 456.86878640044273 210.749253652" stroke-miterlimit="10" stroke-width="1.4659797833333332" stroke-dasharray=""/><g transform="translate(471.35266665977605,210.749253652) translate(-471.35266665977605,-210.749253652)"><path fill="black" stroke="none" paint-order="stroke fill markers" d=" M 456.6928688264427 203.41935473533331 L 471.35266665977605 210.749253652 L 456.6928688264427 218.07915256866667 Z"/></g></g><g><rect fill="white" stroke="none" x="492.1695795831094" y="237.13688975199997" width="240.77494848464843" height="22.86928462"/><text fill="black" stroke="none" font-family="sans-serif" font-size="11pt" font-style="normal" font-weight="normal" text-decoration="normal" x="494.8083431931094" y="252.969471412" text-anchor="start" dominant-baseline="alphabetic" xml:space="preserve">GET /weather/current/us/02215.json</text></g><g><path fill="none" stroke="black" paint-order="fill stroke markers" d=" M 471.35266665977605 260.006174372 L 739.2775607317578 260.006174372" stroke-miterlimit="10" stroke-width="1.4659797833333332" stroke-dasharray=""/><g transform="translate(753.7614409910911,260.006174372) translate(-753.7614409910911,-260.006174372)"><path fill="black" stroke="none" paint-order="stroke fill markers" d=" M 739.1016431577578 252.6762754553333 L 753.7614409910911 260.006174372 L 739.1016431577578 267.3360732886666 Z"/></g></g><g><rect fill="white" stroke="none" x="500.17601116269924" y="286.393810472" width="224.76208532546875" height="22.86928462"/><text fill="black" stroke="none" font-family="sans-serif" font-size="11pt" font-style="normal" font-weight="normal" text-decoration="normal" x="502.81477477269925" y="302.226392132" text-anchor="start" dominant-baseline="alphabetic" xml:space="preserve">{"temp": 65, "conditions": "sunny"}</text></g><g><path fill="none" stroke="black" paint-order="fill stroke markers" d=" M 753.7614409910911 309.26309509199996 L 485.83654691910937 309.26309509199996" stroke-miterlimit="10" stroke-width="1.4659797833333332" stroke-dasharray=""/><g transform="translate(471.35266665977605,309.26309509199996) translate(-471.35266665977605,-309.26309509199996)"><path fill="black" stroke="none" paint-order="stroke fill markers" d=" M 486.0124644931094 301.9331961753333 L 471.35266665977605 309.26309509199996 L 486.0124644931094 316.5929940086666 Z"/></g></g><g><rect fill="white" stroke="none" x="76.34281361361066" y="335.65073119199997" width="10.173736936796875" height="22.86928462"/><rect fill="white" stroke="none" x="76.34281361361066" y="353.242488592" width="118.34834326003906" height="22.86928462"/><rect fill="white" stroke="none" x="76.34281361361066" y="370.834245992" width="361.5909427473438" height="22.86928462"/><rect fill="white" stroke="none" x="76.34281361361066" y="388.426003392" width="10.173736936796875" height="22.86928462"/><text fill="black" stroke="none" font-family="sans-serif" font-size="11pt" font-style="normal" font-weight="normal" text-decoration="normal" x="78.98157722361066" y="351.483312852" text-anchor="start" dominant-baseline="alphabetic" xml:space="preserve">{</text><text fill="black" stroke="none" font-family="sans-serif" font-size="11pt" font-style="normal" font-weight="normal" text-decoration="normal" x="78.98157722361066" y="369.075070252" text-anchor="start" dominant-baseline="alphabetic" xml:space="preserve">  role: "assistant",</text><text fill="black" stroke="none" font-family="sans-serif" font-size="11pt" font-style="normal" font-weight="normal" text-decoration="normal" x="78.98157722361066" y="386.666827652" text-anchor="start" dominant-baseline="alphabetic" xml:space="preserve">  content: "It's 65 degrees and sunny—a beautiful day!"</text><text fill="black" stroke="none" font-family="sans-serif" font-size="11pt" font-style="normal" font-weight="normal" text-decoration="normal" x="78.98157722361066" y="404.258585052" text-anchor="start" dominant-baseline="alphabetic" xml:space="preserve">}</text></g><g><path fill="none" stroke="black" paint-order="fill stroke markers" d=" M 471.35266665977605 411.29528801199996 L 57.40776831533333 411.29528801199996" stroke-miterlimit="10" stroke-width="1.4659797833333332" stroke-dasharray=""/><g transform="translate(42.923888055999996,411.29528801199996) translate(-42.923888055999996,-411.29528801199996)"><path fill="black" stroke="none" paint-order="stroke fill markers" d=" M 57.583685889333324 403.9653890953333 L 42.923888055999996 411.29528801199996 L 57.583685889333324 418.6251869286666 Z"/></g></g></g><g/><g/><g/></g></svg>