<svg xmlns="http://www.w3.org/2000/svg" xmlns:xlink="http://www.w3.org/1999/xlink" version="1.1" width="836.2578179373763" height="588.9720377519999"><desc>participant%20openweather.org%0Amaterialdesignicons%20F07D4%20Ellmer%0Amaterialdesignicons%20F167A%20OpenAI%0A%0AEllmer-%3EOpenAI%3A%20%7B%5Cn%20%20role%3A%20%22user%22%2C%5Cn%20%20content%3A%20%22What's%20the%20weather%20right%20now%20at%20Fenway%20Park%3F%22%2C%5Cn%20%20tools%3A%20%5Bget_current_weather%5D%5Cn%7D%0AOpenAI-%3EEllmer%3A%20CALL%20get_current_weather(%2202215%22)%0AEllmer-%3Eopenweather.org%3A%20GET%20%2Fweather%2Fcurrent%2Fus%2F02215.json%0Aopenweather.org-%3EEllmer%3A%20%7B%22temp%22%3A%2065%2C%20%22conditions%22%3A%20%22sunny%22%7D%0AEllmer-%3EOpenAI%3A%20RETURN%20%7B%22temp%22%3A%2065%2C%20%22conditions%22%3A%20%22sunny%22%7D%0AOpenAI-%3EEllmer%3A%20%7B%5Cn%20%20role%3A%20%22assistant%22%2C%5Cn%20%20content%3A%20%22It's%2065%20degrees%20and%20sunny%E2%80%94a%20beautiful%20day!%22%5Cn%7D</desc><defs/><g><g/><g/><g/><g/><g/><g/><g/><g/><g/><g/><g/><g/><g/><g/><g/><g/><g/><g/><g/><g/><g/><g/><g/><g/><g/><g/><g/><g/><g/><g/><g/><g/><g/><g/><g/><g/><g/><g/><g/><g/><g/><g/><g/><g/><g/><g/><g/><g/><g/><g/><g/><g/><g/><g/><g/><g/><g/><g/><g/><g/><g/><g/><g/><g/><g/><g/><g/><g/><g/><g/><g/><g/><g/><g/><g/><g/><g/><g/><g/><g/><g/><g/><g/><g/><g/><g/><g/><g/><g/><g/><g/><g/><g/><g/><g/><g/><g/><g/><g/><g/><g><rect fill="white" stroke="none" x="0" y="0" width="836" height="588"/></g><g/><g><path fill="none" stroke="black" paint-order="fill stroke markers" d=" M 82.49637694628517 99.92118203199999 L 82.49637694628517 588.9720377519999" stroke-miterlimit="10" stroke-width="1.4659797833333332" stroke-dasharray="13.532121076923076,5.863919133333333"/><path fill="none" stroke="black" paint-order="fill stroke markers" d=" M 364.9051512776003 99.92118203199999 L 364.9051512776003 588.9720377519999" stroke-miterlimit="10" stroke-width="1.4659797833333332" stroke-dasharray="13.532121076923076,5.863919133333333"/><path fill="none" stroke="black" paint-order="fill stroke markers" d=" M 793.3339298813763 99.92118203199999 L 793.3339298813763 588.9720377519999" stroke-miterlimit="10" stroke-width="1.4659797833333332" stroke-dasharray="13.532121076923076,5.863919133333333"/></g><g><path fill="none" stroke="none"/><g><path fill="white" stroke="black" paint-order="fill stroke markers" d=" M 8.795878700000003 52.423437052 L 156.19687519257033 52.423437052 L 156.19687519257033 99.92118203199999 L 8.795878700000003 99.92118203199999 L 8.795878700000003 52.423437052 Z" stroke-miterlimit="10" stroke-width="2.814681184" stroke-dasharray=""/></g><g><g/><text fill="black" stroke="none" font-family="sans-serif" font-size="11pt" font-style="normal" font-weight="normal" text-decoration="normal" x="27.88293547900001" y="82.32942463199998" text-anchor="start" dominant-baseline="alphabetic" xml:space="preserve">openweather.org</text></g><svg xmlns="http://www.w3.org/2000/svg" viewBox="0 0 24 24" id="mdi-language-r" width="68.256018712" height="68.256018712" x="330.7771419216003" y="8.795878699999989"><path d="M12,4.29C6.5,4.29 2,7.29 2,11C2,14.28 5.56,17 10.24,17.58V19.71H13.65V17.59C14.5,17.5 15.29,17.34 16.04,17.11L17.42,19.71H21.28L18.96,15.8C20.83,14.58 22,12.87 22,11C22,7.29 17.5,4.29 12,4.29V4.29M13.53,6.91C17.73,6.91 20.83,8.31 20.83,11.5C20.83,13.21 19.91,14.41 18.41,15.15C18.32,15.1 18.24,15.05 18.19,15C17.83,14.84 17.23,14.66 17.23,14.66C17.23,14.66 20.21,14.44 20.21,11.47C20.21,8.5 17.09,8.45 17.09,8.45H10.24V15.61C7.69,14.87 5.93,13.3 5.93,11.5C5.93,8.96 9.33,6.91 13.53,6.91M13.68,10.89H15.75C15.75,10.89 16.7,10.84 16.7,11.83C16.7,12.8 15.75,12.8 15.75,12.8H13.68V10.89M13.65,15.3H14.57C14.75,15.3 14.84,15.35 15,15.5C15.13,15.6 15.27,15.79 15.39,15.96C14.84,16.03 14.26,16.06 13.65,16.06V15.3Z"/></svg><g><g/><text fill="black" stroke="none" font-family="sans-serif" font-size="11pt" font-style="normal" font-weight="normal" text-decoration="normal" x="344.13565817457294" y="94.643654812" text-anchor="start" dominant-baseline="alphabetic" xml:space="preserve">Ellmer</text></g><svg xmlns="http://www.w3.org/2000/svg" viewBox="0 0 24 24" id="mdi-robot-outline" width="68.256018712" height="68.256018712" x="759.2059205253763" y="8.795878699999989"><path d="M17.5 15.5C17.5 16.61 16.61 17.5 15.5 17.5S13.5 16.61 13.5 15.5 14.4 13.5 15.5 13.5 17.5 14.4 17.5 15.5M8.5 13.5C7.4 13.5 6.5 14.4 6.5 15.5S7.4 17.5 8.5 17.5 10.5 16.61 10.5 15.5 9.61 13.5 8.5 13.5M23 15V18C23 18.55 22.55 19 22 19H21V20C21 21.11 20.11 22 19 22H5C3.9 22 3 21.11 3 20V19H2C1.45 19 1 18.55 1 18V15C1 14.45 1.45 14 2 14H3C3 10.13 6.13 7 10 7H11V5.73C10.4 5.39 10 4.74 10 4C10 2.9 10.9 2 12 2S14 2.9 14 4C14 4.74 13.6 5.39 13 5.73V7H14C17.87 7 21 10.13 21 14H22C22.55 14 23 14.45 23 15M21 16H19V14C19 11.24 16.76 9 14 9H10C7.24 9 5 11.24 5 14V16H3V17H5V20H19V17H21V16Z"/></svg><g><g/><text fill="black" stroke="none" font-family="sans-serif" font-size="11pt" font-style="normal" font-weight="normal" text-decoration="normal" x="768.4770954697552" y="94.643654812" text-anchor="start" dominant-baseline="alphabetic" xml:space="preserve">OpenAI</text></g></g><g><g><rect fill="white" stroke="none" x="385.72206420093363" y="135.104696832" width="10.173736936796875" height="22.86928462"/><rect fill="white" stroke="none" x="385.72206420093363" y="152.696454232" width="89.01406896804687" height="22.86928462"/><rect fill="white" stroke="none" x="385.72206420093363" y="170.288211632" width="386.7949222395313" height="22.86928462"/><rect fill="white" stroke="none" x="385.72206420093363" y="187.87996903200002" width="195.14860571121093" height="22.86928462"/><rect fill="white" stroke="none" x="385.72206420093363" y="205.47172643200003" width="10.173736936796875" height="22.86928462"/><text fill="black" stroke="none" font-family="sans-serif" font-size="11pt" font-style="normal" font-weight="normal" text-decoration="normal" x="388.36082781093364" y="150.93727849200002" text-anchor="start" dominant-baseline="alphabetic" xml:space="preserve">{</text><text fill="black" stroke="none" font-family="sans-serif" font-size="11pt" font-style="normal" font-weight="normal" text-decoration="normal" x="388.36082781093364" y="168.52903589200002" text-anchor="start" dominant-baseline="alphabetic" xml:space="preserve">  role: "user",</text><text fill="black" stroke="none" font-family="sans-serif" font-size="11pt" font-style="normal" font-weight="normal" text-decoration="normal" x="388.36082781093364" y="186.12079329200003" text-anchor="start" dominant-baseline="alphabetic" xml:space="preserve">  content: "What's the weather right now at Fenway Park?",</text><text fill="black" stroke="none" font-family="sans-serif" font-size="11pt" font-style="normal" font-weight="normal" text-decoration="normal" x="388.36082781093364" y="203.71255069200004" text-anchor="start" dominant-baseline="alphabetic" xml:space="preserve">  tools: [get_current_weather]</text><text fill="black" stroke="none" font-family="sans-serif" font-size="11pt" font-style="normal" font-weight="normal" text-decoration="normal" x="388.36082781093364" y="221.30430809200004" text-anchor="start" dominant-baseline="alphabetic" xml:space="preserve">}</text></g><g><path fill="none" stroke="black" paint-order="fill stroke markers" d=" M 364.9051512776003 228.341011052 L 778.850049622043 228.341011052" stroke-miterlimit="10" stroke-width="1.4659797833333332" stroke-dasharray=""/><g transform="translate(793.3339298813763,228.341011052) translate(-793.3339298813763,-228.341011052)"><path fill="black" stroke="none" paint-order="stroke fill markers" d=" M 778.674132048043 221.01111213533332 L 793.3339298813763 228.341011052 L 778.674132048043 235.67090996866668 Z"/></g></g><g><rect fill="white" stroke="none" x="458.40637511401957" y="254.72864715199995" width="241.4263309309375" height="22.86928462"/><text fill="black" stroke="none" font-family="sans-serif" font-size="11pt" font-style="normal" font-weight="normal" text-decoration="normal" x="461.0451387240196" y="270.56122881199997" text-anchor="start" dominant-baseline="alphabetic" xml:space="preserve">CALL get_current_weather("02215")</text></g><g><path fill="none" stroke="black" paint-order="fill stroke markers" d=" M 793.3339298813763 277.597931772 L 379.3890315369336 277.597931772" stroke-miterlimit="10" stroke-width="1.4659797833333332" stroke-dasharray=""/><g transform="translate(364.9051512776003,277.597931772) translate(-364.9051512776003,-277.597931772)"><path fill="black" stroke="none" paint-order="stroke fill markers" d=" M 379.56494911093364 270.26803285533333 L 364.9051512776003 277.597931772 L 379.56494911093364 284.92783068866663 Z"/></g></g><g><rect fill="white" stroke="none" x="103.31328986961849" y="303.985567872" width="240.77494848464843" height="22.86928462"/><text fill="black" stroke="none" font-family="sans-serif" font-size="11pt" font-style="normal" font-weight="normal" text-decoration="normal" x="105.95205347961848" y="319.818149532" text-anchor="start" dominant-baseline="alphabetic" xml:space="preserve">GET /weather/current/us/02215.json</text></g><g><path fill="none" stroke="black" paint-order="fill stroke markers" d=" M 364.9051512776003 326.85485249199996 L 96.9802572056185 326.85485249199996" stroke-miterlimit="10" stroke-width="1.4659797833333332" stroke-dasharray=""/><g transform="translate(82.49637694628517,326.85485249199996) translate(-82.49637694628517,-326.85485249199996)"><path fill="black" stroke="none" paint-order="stroke fill markers" d=" M 97.1561747796185 319.5249535753333 L 82.49637694628517 326.85485249199996 L 97.1561747796185 334.1847514086666 Z"/></g></g><g><rect fill="white" stroke="none" x="111.31972144920833" y="353.242488592" width="224.76208532546875" height="22.86928462"/><text fill="black" stroke="none" font-family="sans-serif" font-size="11pt" font-style="normal" font-weight="normal" text-decoration="normal" x="113.95848505920833" y="369.075070252" text-anchor="start" dominant-baseline="alphabetic" xml:space="preserve">{"temp": 65, "conditions": "sunny"}</text></g><g><path fill="none" stroke="black" paint-order="fill stroke markers" d=" M 82.49637694628517 376.11177321199995 L 350.42127101826696 376.11177321199995" stroke-miterlimit="10" stroke-width="1.4659797833333332" stroke-dasharray=""/><g transform="translate(364.9051512776003,376.11177321199995) translate(-364.9051512776003,-376.11177321199995)"><path fill="black" stroke="none" paint-order="stroke fill markers" d=" M 350.2453534442669 368.7818742953333 L 364.9051512776003 376.11177321199995 L 350.2453534442669 383.4416721286666 Z"/></g></g><g><rect fill="white" stroke="none" x="434.1615402141172" y="402.49940931199995" width="289.9160159895313" height="22.86928462"/><text fill="black" stroke="none" font-family="sans-serif" font-size="11pt" font-style="normal" font-weight="normal" text-decoration="normal" x="436.80030382411724" y="418.33199097199997" text-anchor="start" dominant-baseline="alphabetic" xml:space="preserve">RETURN {"temp": 65, "conditions": "sunny"}</text></g><g><path fill="none" stroke="black" paint-order="fill stroke markers" d=" M 364.9051512776003 425.3686939319999 L 778.850049622043 425.3686939319999" stroke-miterlimit="10" stroke-width="1.4659797833333332" stroke-dasharray=""/><g transform="translate(793.3339298813763,425.3686939319999) translate(-793.3339298813763,-425.3686939319999)"><path fill="black" stroke="none" paint-order="stroke fill markers" d=" M 778.674132048043 418.0387950153333 L 793.3339298813763 425.3686939319999 L 778.674132048043 432.6985928486666 Z"/></g></g><g><rect fill="white" stroke="none" x="398.324076835211" y="451.7563300319999" width="10.173736936796875" height="22.86928462"/><rect fill="white" stroke="none" x="398.324076835211" y="469.3480874319999" width="118.34834326003906" height="22.86928462"/><rect fill="white" stroke="none" x="398.324076835211" y="486.9398448319999" width="361.5909427473438" height="22.86928462"/><rect fill="white" stroke="none" x="398.324076835211" y="504.5316022319999" width="10.173736936796875" height="22.86928462"/><text fill="black" stroke="none" font-family="sans-serif" font-size="11pt" font-style="normal" font-weight="normal" text-decoration="normal" x="400.962840445211" y="467.5889116919999" text-anchor="start" dominant-baseline="alphabetic" xml:space="preserve">{</text><text fill="black" stroke="none" font-family="sans-serif" font-size="11pt" font-style="normal" font-weight="normal" text-decoration="normal" x="400.962840445211" y="485.1806690919999" text-anchor="start" dominant-baseline="alphabetic" xml:space="preserve">  role: "assistant",</text><text fill="black" stroke="none" font-family="sans-serif" font-size="11pt" font-style="normal" font-weight="normal" text-decoration="normal" x="400.962840445211" y="502.7724264919999" text-anchor="start" dominant-baseline="alphabetic" xml:space="preserve">  content: "It's 65 degrees and sunny—a beautiful day!"</text><text fill="black" stroke="none" font-family="sans-serif" font-size="11pt" font-style="normal" font-weight="normal" text-decoration="normal" x="400.962840445211" y="520.3641838919999" text-anchor="start" dominant-baseline="alphabetic" xml:space="preserve">}</text></g><g><path fill="none" stroke="black" paint-order="fill stroke markers" d=" M 793.3339298813763 527.4008868519999 L 379.3890315369336 527.4008868519999" stroke-miterlimit="10" stroke-width="1.4659797833333332" stroke-dasharray=""/><g transform="translate(364.9051512776003,527.4008868519999) translate(-364.9051512776003,-527.4008868519999)"><path fill="black" stroke="none" paint-order="stroke fill markers" d=" M 379.56494911093364 520.0709879353332 L 364.9051512776003 527.4008868519999 L 379.56494911093364 534.7307857686666 Z"/></g></g></g><g/><g/><g/></g></svg>